<?xml version="1.0" encoding="iso-8859-1"?>
<!-- Generator: Adobe Illustrator 19.0.0, SVG Export Plug-In . SVG Version: 6.00 Build 0)  -->
<svg version="1.1" id="Capa_1" xmlns="http://www.w3.org/2000/svg" xmlns:xlink="http://www.w3.org/1999/xlink" x="0px" y="0px"
	 viewBox="0 0 512.002 512.002" style="enable-background:new 0 0 512.002 512.002;" xml:space="preserve">
<g>
	<g>
		<path d="M382.183,243.301c-9.621-11.97-23.439-18.834-37.912-18.834c-14.473,0-28.292,6.865-37.913,18.834
			c-2.595,3.229-2.082,7.949,1.147,10.544c3.228,2.595,7.95,2.081,10.544-1.147c6.759-8.409,16.316-13.232,26.221-13.232
			c9.905,0,19.462,4.823,26.221,13.232c1.481,1.843,3.656,2.802,5.851,2.802c1.648,0,3.309-0.542,4.694-1.655
			C384.265,251.25,384.778,246.529,382.183,243.301z"/>
	</g>
</g>
<g>
	<g>
		<path d="M205.788,243.301c-9.621-11.97-23.439-18.834-37.912-18.834c-14.473,0-28.292,6.865-37.913,18.834
			c-2.595,3.229-2.082,7.949,1.147,10.544c3.228,2.595,7.95,2.081,10.544-1.147c6.759-8.409,16.316-13.232,26.221-13.232
			c9.905,0,19.462,4.823,26.221,13.232c1.481,1.843,3.656,2.802,5.851,2.802c1.648,0,3.309-0.542,4.694-1.655
			C207.87,251.25,208.383,246.529,205.788,243.301z"/>
	</g>
</g>
<g>
	<g>
		<path d="M356.646,338.129c-3.335-2.454-8.03-1.74-10.486,1.596c-20.767,28.223-54.482,45.073-90.188,45.073
			c-35.705,0-69.42-16.85-90.188-45.073c-2.456-3.337-7.15-4.052-10.486-1.596c-3.336,2.455-4.051,7.15-1.596,10.486
			c23.583,32.05,61.815,51.184,102.27,51.184c40.456,0,78.687-19.134,102.27-51.184
			C360.697,345.279,359.982,340.584,356.646,338.129z"/>
	</g>
</g>
<g>
	<g>
		<path d="M422.836,23.889C378.159,8.484,318.909,0,256.001,0S133.842,8.484,89.166,23.89
			c-47.17,16.266-73.148,38.916-73.148,63.777c0,18.476,14.358,35.728,41.089,50.049c-28.582,42.283-43.053,93.359-40.831,144.691
			C18.62,336.561,39.495,388.836,75.055,429.6c1.483,1.7,3.563,2.57,5.655,2.57c1.749,0,3.506-0.608,4.927-1.848
			c3.122-2.723,3.444-7.46,0.722-10.582c-33.332-38.211-52.899-87.213-55.096-137.981c-2.115-48.863,11.888-97.479,39.498-137.457
			c5.721,2.494,11.851,4.881,18.405,7.141c44.676,15.405,103.926,23.89,166.835,23.89s122.159-8.484,166.835-23.89
			c47.17-16.266,73.148-38.916,73.148-63.777C495.984,62.805,470.006,40.155,422.836,23.889z M133.565,31.082
			C166.16,20.712,209.642,15,256.001,15s89.84,5.712,122.436,16.083c28.64,9.113,46.431,21.579,46.431,32.534
			c-0.001,6.822-6.905,14.231-19.03,21.051c-87.425-70.079-212.337-70.108-299.736-0.036c-12.086-6.81-18.968-14.205-18.968-21.016
			C87.134,52.661,104.925,40.195,133.565,31.082z M390.596,91.825c-3.794,1.506-7.851,2.954-12.16,4.325
			C345.84,106.521,302.359,112.233,256,112.233s-89.84-5.712-122.436-16.083c-4.337-1.38-8.421-2.838-12.236-4.354
			C200.934,32.161,310.964,32.185,390.596,91.825z M417.946,137.263c-43.144,14.877-100.657,23.07-161.945,23.07
			S137.2,152.14,94.056,137.263c-40.062-13.815-63.038-31.892-63.038-49.596c0-15.665,17.999-31.619,49.893-44.657
			c-5.647,6.229-8.776,13.104-8.776,20.607c0,41.32,94.732,63.616,183.866,63.616s183.866-22.296,183.866-63.616
			c0-7.502-3.125-14.377-8.771-20.605c31.891,13.037,49.888,28.991,49.888,44.655C480.984,105.372,458.007,123.449,417.946,137.263z
			"/>
	</g>
</g>
<g>
	<g>
		<path d="M468.545,160.625c-1.925-3.668-6.458-5.081-10.127-3.156c-3.667,1.925-5.081,6.458-3.156,10.126
			c21.811,41.558,30.11,90.159,23.37,136.848c-6.97,48.282-28.944,92.092-63.544,126.693
			c-40.576,40.575-94.489,63.926-151.809,65.75c-57.041,1.822-112.085-17.786-154.968-55.194c-3.121-2.723-7.858-2.4-10.582,0.722
			c-2.723,3.122-2.4,7.859,0.722,10.582c43.805,38.211,99.483,59.006,157.556,59.006c2.576,0,5.165-0.041,7.75-0.124
			c61.146-1.945,118.657-26.853,161.938-70.135c36.908-36.908,60.348-83.644,67.784-135.156
			C500.667,256.795,491.812,204.958,468.545,160.625z"/>
	</g>
</g>
<g>
</g>
<g>
</g>
<g>
</g>
<g>
</g>
<g>
</g>
<g>
</g>
<g>
</g>
<g>
</g>
<g>
</g>
<g>
</g>
<g>
</g>
<g>
</g>
<g>
</g>
<g>
</g>
<g>
</g>
</svg>
