<?xml version="1.0" encoding="iso-8859-1"?>
<!-- Generator: Adobe Illustrator 19.0.0, SVG Export Plug-In . SVG Version: 6.00 Build 0)  -->
<svg version="1.1" id="Capa_1" xmlns="http://www.w3.org/2000/svg" xmlns:xlink="http://www.w3.org/1999/xlink" x="0px" y="0px"
	 viewBox="0 0 511.998 511.998" style="enable-background:new 0 0 511.998 511.998;" xml:space="preserve">
<g>
	<g>
		<path d="M504.68,6.461c-5.77-3.558-13.14-2.981-18.341,1.434c-27.75,23.556-59.971,45.428-84.891,57.691
			c-1.753-1.219-3.511-2.419-5.278-3.58c-6.474-4.251-14.757-4.924-22.16-1.796c-4.621,1.953-9.406,3.885-14.224,5.741
			c-2.053,0.791-4.409,0.657-6.639-0.375c-30.646-14.197-63.372-21.395-97.271-21.395c-33.899,0-66.625,7.198-97.27,21.395
			c-2.229,1.032-4.586,1.167-6.639,0.375c-4.818-1.856-9.604-3.788-14.226-5.742c-7.401-3.127-15.685-2.455-22.159,1.797
			c-1.747,1.147-3.476,2.315-5.189,3.501C85.493,53.229,53.352,31.4,25.66,7.895C20.458,3.479,13.089,2.903,7.319,6.461
			c-5.778,3.564-8.47,10.152-6.858,16.785c6.001,24.7,22.435,68.447,44.679,107.685c-0.554,0.804-1.118,1.598-1.664,2.409
			c-5.192,7.716-5.256,17.766-0.162,25.603c1.276,1.963,2.578,3.928,3.907,5.893c1.791,2.648,2,5.976,0.559,8.902
			c-16.933,34.38-25.079,72.978-23.559,111.622c2.041,51.86,22.22,102.323,56.82,142.097c1.483,1.705,3.567,2.578,5.662,2.578
			c1.746,0,3.5-0.606,4.919-1.841c3.125-2.719,3.455-7.456,0.736-10.581c-32.367-37.206-51.242-84.383-53.149-132.842
			c-1.422-36.156,6.194-72.258,22.027-104.405c3.793-7.703,3.184-16.873-1.591-23.933c-1.277-1.888-2.529-3.776-3.755-5.663
			c-1.782-2.742-1.771-6.381,0.029-9.055c18.06-26.839,40.904-49.439,67.897-67.172c2.248-1.476,5.345-1.674,8.085-0.517
			c4.768,2.015,9.704,4.008,14.671,5.922c5.875,2.264,12.388,1.994,18.337-0.762c28.655-13.274,59.26-20.005,90.965-20.005
			s62.311,6.731,90.966,20.005c5.949,2.756,12.461,3.026,18.337,0.762c4.967-1.914,9.903-3.907,14.67-5.921
			c2.74-1.158,5.838-0.959,8.086,0.517c9.214,6.053,18.258,12.968,26.881,20.553c3.11,2.736,7.849,2.431,10.585-0.678
			c2.736-3.11,2.432-7.849-0.678-10.585c-3.236-2.847-6.532-5.6-9.872-8.262c24.842-13.182,55.015-34.017,81.195-56.241
			c0.183-0.155,0.387-0.331,0.759-0.102c0.23,0.142,0.225,0.199,0.157,0.477c-5.478,22.548-20.085,61.747-40.012,98.181
			c-2.846-3.593-5.817-7.161-8.914-10.685c-2.734-3.111-7.473-3.418-10.584-0.683c-3.111,2.734-3.417,7.473-0.683,10.584
			c7.084,8.062,13.498,16.343,19.062,24.612c1.799,2.673,1.811,6.312,0.029,9.054c-1.227,1.888-2.479,3.777-3.758,5.667
			c-4.773,7.057-5.382,16.224-1.59,23.923c14.731,29.909,22.201,62.094,22.201,95.66c0,58.47-22.924,113.288-64.549,154.359
			c-41.617,41.063-96.757,63.273-155.269,62.458c-50.542-0.677-99.764-19.616-138.6-53.326c-3.13-2.715-7.865-2.38-10.581,0.748
			c-2.715,3.128-2.38,7.865,0.748,10.581c41.508,36.03,94.151,56.271,148.232,56.997c1.073,0.014,2.137,0.021,3.208,0.021
			c61.357,0,119.064-23.652,162.797-66.802c44.504-43.911,69.013-102.522,69.013-165.036c0-35.885-7.989-70.298-23.745-102.288
			c-1.439-2.922-1.23-6.246,0.559-8.892c1.33-1.966,2.633-3.932,3.91-5.896c5.094-7.838,5.031-17.888-0.162-25.603
			c-0.499-0.741-1.013-1.482-1.524-2.223c22.298-39.286,38.776-83.132,44.786-107.871C513.15,16.614,510.458,10.025,504.68,6.461z
			 M54.914,117.64C35.056,81.274,20.502,42.201,15.037,19.705c-0.068-0.278-0.073-0.335,0.157-0.477
			c0.372-0.228,0.577-0.052,0.759,0.102c26.117,22.17,56.206,42.958,81.012,56.145C81.34,87.854,67.27,101.946,54.914,117.64z"/>
	</g>
</g>
<g>
	<g>
		<path d="M191.78,252.494c-4.142,0-7.5,3.358-7.5,7.5v12.018c0,6.909-5.621,12.53-12.53,12.53s-12.53-5.621-12.53-12.53v-16.024
			c0-6.909,5.621-12.53,12.53-12.53c4.142,0,7.5-3.358,7.5-7.5s-3.358-7.5-7.5-7.5c-15.18,0-27.53,12.35-27.53,27.53v16.024
			c0,15.18,12.35,27.53,27.53,27.53s27.53-12.35,27.53-27.53v-12.018C199.28,255.852,195.922,252.494,191.78,252.494z"/>
	</g>
</g>
<g>
	<g>
		<path d="M360.033,252.494c-4.142,0-7.5,3.358-7.5,7.5v12.018c0,6.909-5.621,12.53-12.53,12.53s-12.53-5.621-12.53-12.53v-16.024
			c-0.001-6.909,5.621-12.53,12.53-12.53c4.142,0,7.5-3.358,7.5-7.5s-3.358-7.5-7.5-7.5c-15.18,0-27.53,12.35-27.53,27.53v16.024
			c0,15.18,12.35,27.53,27.53,27.53s27.53-12.35,27.53-27.53v-12.018C367.533,255.852,364.175,252.494,360.033,252.494z"/>
	</g>
</g>
<g>
	<g>
		<path d="M210.826,213.14l-72.108-32.106c-3.785-1.686-8.218,0.017-9.902,3.801c-1.685,3.784,0.017,8.218,3.801,9.902
			l72.108,32.106c0.992,0.441,2.027,0.65,3.046,0.65c2.872,0,5.612-1.659,6.856-4.451
			C216.311,219.258,214.609,214.824,210.826,213.14z"/>
	</g>
</g>
<g>
	<g>
		<path d="M382.88,184.835c-1.685-3.783-6.117-5.487-9.902-3.801L300.87,213.14c-3.784,1.685-5.485,6.118-3.801,9.902
			c1.244,2.792,3.984,4.451,6.856,4.451c1.019,0,2.055-0.209,3.046-0.65l72.108-32.106
			C382.863,193.053,384.565,188.619,382.88,184.835z"/>
	</g>
</g>
<g>
	<g>
		<path d="M382.071,349.7c-3.28-6.761-11.044-10.321-18.883-8.653c-34.465,7.324-70.628,11.038-107.486,11.038
			c-36.861,0-73.024-3.714-107.487-11.039c-7.84-1.664-15.603,1.894-18.883,8.655c-2.994,6.165-1.338,13.359,4.119,17.901
			c10.885,9.06,22.783,16.886,35.373,23.309c1.206,4.113,4.274,7.454,8.496,8.982c1.565,0.567,3.167,0.842,4.746,0.842
			c2.041,0,4.04-0.467,5.868-1.349c21.608,8.18,44.383,12.327,67.767,12.327c23.461,0,46.306-4.173,67.974-12.405
			c1.867,0.93,3.917,1.427,6.013,1.427c1.579,0,3.182-0.275,4.746-0.841c4.294-1.555,7.394-4.986,8.555-9.197
			c12.438-6.385,24.193-14.133,34.961-23.094C383.407,363.061,385.063,355.866,382.071,349.7z M168.256,373.574
			c-8.883-5.082-17.332-10.944-25.209-17.501c-0.016-0.014-0.031-0.026-0.046-0.039c0.289-0.254,0.937-0.562,2.094-0.317
			c7.642,1.624,15.369,3.065,23.161,4.344V373.574z M183.256,383.497v-21.201c5.331,0.715,10.687,1.359,16.072,1.914
			L183.256,383.497z M255.7,396.711c-19.348,0-38.236-3.087-56.296-9.163l18.152-21.782c12.61,0.869,25.336,1.316,38.144,1.316
			c12.92,0.001,25.758-0.454,38.478-1.339l18.094,21.712C294.13,393.593,275.15,396.711,255.7,396.711z M328.498,383.497
			l-16.102-19.322c5.395-0.559,10.762-1.207,16.102-1.927V383.497z M368.353,356.072c-7.774,6.47-16.104,12.255-24.856,17.289
			v-13.359c7.672-1.263,15.28-2.685,22.807-4.285c1.157-0.245,1.806,0.063,2.095,0.316
			C368.384,356.046,368.369,356.059,368.353,356.072z"/>
	</g>
</g>
<g>
</g>
<g>
</g>
<g>
</g>
<g>
</g>
<g>
</g>
<g>
</g>
<g>
</g>
<g>
</g>
<g>
</g>
<g>
</g>
<g>
</g>
<g>
</g>
<g>
</g>
<g>
</g>
<g>
</g>
</svg>
