<svg id="Capa_1" enable-background="new 0 0 512 512" height="512" viewBox="0 0 512 512" width="512" xmlns="http://www.w3.org/2000/svg"><g><path d="m463.976 212.144-32.02-16-31.98 16c-23.209 11.952-40 36.096-40 64 0 40.051 33.419 80.103 58.43 120.154 3.143 5.033 8.345 7.55 13.55 7.557 5.205-.006 10.407-2.523 13.55-7.557 25.01-40.052 58.43-80.103 58.43-120.154 0-27.903-16.75-52.048-39.96-64z" fill="#d6bdef"/><path d="m423.956 108.144h16v64h-16z" fill="#bd4150"/><path d="m463.976 196.144-55.663 5.189v-21.189l7.664-16h32c8.837 0 16 7.163 16 16z" fill="#db4655"/><circle cx="431.956" cy="276.144" fill="#ead1ff" r="32"/><path d="m431.956 196.144c-8.837 0-16-7.163-16-16v-15.998c-8.827.011-15.98 7.168-15.98 15.998v32h64v-16z" fill="#bd4150"/><path d="m288.017 228.144-32.02-16-31.98 16c-23.209 11.952-40 36.096-40 64 0 40.051 33.419 80.103 58.43 120.154 3.143 5.033 8.345 7.55 13.55 7.557 5.205-.006 10.407-2.523 13.55-7.557 25.01-40.052 58.43-80.103 58.43-120.154-.001-27.903-16.751-52.048-39.96-64z" fill="#ffe07d"/><path d="m247.997 124.144h16v64h-16z" fill="#bd4150"/><path d="m288.017 212.144-55.663 5.189v-21.189l7.664-16h32c8.837 0 16 7.163 16 16z" fill="#db4655"/><circle cx="255.997" cy="292.144" fill="#fff0af" r="32"/><path d="m255.997 212.144c-8.837 0-16-7.163-16-16v-15.998c-8.827.011-15.98 7.168-15.98 15.998v32h64v-16z" fill="#bd4150"/><path d="m111.997 212.144-32.02-16-31.98 16c-23.209 11.952-40 36.096-40 64 0 40.051 33.419 80.103 58.43 120.154 3.143 5.033 8.345 7.55 13.55 7.557 5.205-.006 10.407-2.523 13.55-7.557 25.01-40.052 58.43-80.103 58.43-120.154 0-27.903-16.751-52.048-39.96-64z" fill="#b3e59f"/><path d="m71.977 108.144h16v64h-16z" fill="#bd4150"/><path d="m111.997 196.144-55.663 5.189v-21.189l7.664-16h32c8.837 0 16 7.163 16 16z" fill="#db4655"/><circle cx="79.977" cy="276.144" fill="#ccf49f" r="32"/><path d="m79.977 196.144c-8.837 0-16-7.163-16-16v-15.998c-8.827.011-15.98 7.168-15.98 15.998v32h64v-16z" fill="#bd4150"/><path d="m504 132.144c-32.5 0-48.969-6.375-64.898-12.539-15.227-5.895-29.609-11.461-59.117-11.461s-43.883 5.566-59.109 11.461c-15.93 6.164-32.398 12.539-64.898 12.539-32.492 0-48.961-6.375-64.891-12.539-15.219-5.895-29.602-11.461-59.102-11.461s-43.883 5.566-59.102 11.461c-15.93 6.164-32.391 12.539-64.883 12.539-4.422 0-8-3.582-8-8s3.578-8 8-8c29.5 0 43.883-5.566 59.102-11.461 15.93-6.164 32.391-12.539 64.883-12.539s48.953 6.375 64.883 12.539c15.219 5.895 29.602 11.461 59.109 11.461s43.891-5.566 59.117-11.461c15.93-6.164 32.398-12.539 64.891-12.539 32.5 0 48.969 6.375 64.898 12.539 15.227 5.895 29.609 11.461 59.117 11.461 4.422 0 8 3.582 8 8s-3.578 8-8 8z" fill="#db4655"/></g></svg>